<?xml version="1.0" standalone="no"?>
<!DOCTYPE svg PUBLIC "-//W3C//DTD SVG 20010904//EN"
 "http://www.w3.org/TR/2001/REC-SVG-20010904/DTD/svg10.dtd">
<svg version="1.0" xmlns="http://www.w3.org/2000/svg"
 width="371.000000pt" height="480.000000pt" viewBox="0 0 371.000000 480.000000"
 preserveAspectRatio="xMidYMid meet">

<g transform="translate(0.000000,480.000000) scale(0.100000,-0.100000)"
fill="#222" stroke="none">
<path d="M0 2400 l0 -2400 1855 0 1855 0 0 2400 0 2400 -1855 0 -1855 0 0
-2400z m3640 0 l0 -2330 -1785 0 -1785 0 0 2330 0 2330 1785 0 1785 0 0 -2330z"/>
<path d="M100 4620 c0 -90 1 -91 67 -59 46 22 93 82 93 119 0 18 -6 20 -80 20
l-80 0 0 -80z"/>
<path d="M282 4656 c-15 -59 -65 -109 -129 -132 l-53 -19 0 -1037 0 -1038 614
0 614 0 10 58 c25 140 97 259 204 337 129 94 270 121 428 83 71 -17 177 -77
216 -122 19 -22 48 -54 64 -71 50 -53 100 -180 100 -252 l0 -33 633 2 632 3 3
1036 2 1037 -45 11 c-60 15 -128 82 -141 137 l-10 39 -377 3 -377 2 0 -375 0
-375 -231 0 -230 0 -55 -60 c-78 -84 -158 -122 -268 -128 -103 -5 -171 13
-252 67 -33 22 -72 58 -89 80 l-30 41 -237 0 -238 0 0 375 0 375 -373 0 -373
0 -12 -44z"/>
<path d="M1070 4335 l0 -365 788 2 787 3 3 363 2 362 -175 0 -175 0 0 -200 0
-200 -445 0 -445 0 0 200 0 200 -170 0 -170 0 0 -365z"/>
<path d="M1440 4515 l0 -185 418 2 417 3 3 183 2 182 -420 0 -420 0 0 -185z"/>
<path d="M3456 4673 c10 -44 53 -94 98 -114 65 -29 66 -28 66 61 l0 80 -85 0
-85 0 6 -27z"/>
<path d="M1560 3942 c0 -19 38 -57 92 -92 114 -74 250 -83 372 -25 48 23 136
98 136 117 0 4 -135 8 -300 8 -165 0 -300 -3 -300 -8z"/>
<path d="M1740 2886 c-114 -25 -241 -115 -305 -216 -34 -53 -61 -127 -70 -192
l-7 -48 479 0 c264 0 482 2 485 5 12 12 -21 139 -52 199 -39 78 -132 172 -208
210 -101 51 -213 66 -322 42z"/>
<path d="M100 1345 l0 -1055 23 0 c33 0 114 -54 137 -92 11 -18 23 -48 26 -66
l6 -32 374 0 374 0 2 376 3 375 228 -1 228 -1 55 59 c169 184 423 186 601 5
l62 -63 226 0 225 0 0 -375 0 -375 374 0 374 0 16 48 c21 61 79 119 137 136
l44 13 3 1052 2 1051 -635 0 -635 0 0 -34 c0 -46 -34 -151 -67 -209 -73 -125
-226 -227 -368 -245 -287 -37 -535 153 -580 446 l-7 42 -614 0 -614 0 0 -1055z"/>
<path d="M1360 2385 c0 -7 5 -38 11 -67 40 -189 206 -345 400 -378 181 -31
374 59 479 222 34 52 59 122 74 206 l6 32 -485 0 c-417 0 -485 -2 -485 -15z"/>
<path d="M1760 1006 c-25 -7 -60 -21 -79 -30 -40 -21 -121 -94 -121 -110 0
-13 583 -16 596 -3 10 9 -29 51 -82 87 -89 62 -213 84 -314 56z"/>
<path d="M1070 465 l0 -365 170 0 170 0 0 200 0 200 445 0 445 0 0 -200 0
-200 175 0 175 0 -2 363 -3 362 -787 3 -788 2 0 -365z"/>
<path d="M1440 285 l0 -185 420 0 420 0 0 185 0 185 -420 0 -420 0 0 -185z"/>
<path d="M3575 256 c-52 -19 -83 -46 -105 -90 -31 -65 -30 -66 65 -66 l85 0 0
79 c0 44 -3 82 -7 84 -5 2 -21 -1 -38 -7z"/>
<path d="M100 180 l0 -80 84 0 85 0 -10 33 c-18 62 -87 127 -135 127 -23 0
-24 -3 -24 -80z"/>
</g>
</svg>
