<svg width="1000px" id="eLlAPpUV5Sv1" xmlns="http://www.w3.org/2000/svg" xmlns:xlink="http://www.w3.org/1999/xlink" viewBox="0 0 252 350" shape-rendering="geometricPrecision" text-rendering="geometricPrecision" project-id="5da489ab887249489f42b539468f5d88" export-id="b27af96b955040f088450788c2d1260f" cached="false"><path d="M5.23961,298.06468v-5.26027c0-.00171,0-.00342,0-.00513s0-.00342,0-.00513v-255.61178l-2.76138-.10465c17.84708-2.0757,27.68228-7.7364,29.50562-16.98209l9.23974-3.7887c7.74167-9.28718,43.41066-16.30694,86.24314-16.30694c42.28701,0,77.59182,6.84211,85.93382,15.95324l10.53833,4.1424c1.90203,9.24569,12.16171,14.90638,30.77904,16.98209l-5.02408.18253v250.96092c0,.00248,0,.00495,0,.00743s0,.00495,0,.00743v9.82864h-1.20674c-1.37907,5.251-3.82794,9.16982-6.75633,10.55873-4.75401,7.66147-22.55601,12.62652-45.91097,13.29559-37.57736,7.63442-60.85063,14.19279-69.81981,19.67514c0,0,0,0,0,0s0,0,0,0c-.11956-.37095-.23662-.74081-.35117-1.1096-3.13826-5.02196-27.31038-10.90141-72.51635-17.63833-18.67747-.65405-33.26875-4.254-39.51884-9.98078-3.87456-.47039-7.08769-6.59349-8.06696-14.80075l-.30706.00001ZM126,341.59414c0,1.436,0,1.436,0,0Z" transform="translate(0 7.328857)" fill="#404a5d" stroke="rgba(246,255,84,0.9)" stroke-width="6"/><path d="M66.83412,190.66521v-29.83414h47.59468l-.22865-48.33874l29.83381-.14112.22932,48.47986h47.72872v29.83414h-47.5876l.22158,46.84247-29.83381.14112-.22224-46.98359h-47.73581Z" transform="matrix(.697673 0 0 0.704455 39.125062 51.720376)" fill="#d2dbed" stroke-width="0"/></svg>
